<svg width="435" height="467" viewBox="0 0 435 467" fill="none" xmlns="http://www.w3.org/2000/svg">
<path d="M280.695 0.145976C280.622 0.218958 278.683 0.547369 276.379 0.912278C273.234 1.35017 271.552 1.82454 269.504 2.7733C265.298 4.7803 260.324 8.28344 257.106 11.5311C253.449 15.1802 251.803 18.282 250.779 23.3542C250.414 25.2517 249.682 27.8426 249.134 29.0833C248.256 31.1997 248.183 31.7471 248.183 37.0383C248.183 43.2053 248.219 43.1323 245.806 46.3435C244.964 47.5112 244.087 48.9343 243.831 49.5547C243.392 50.5764 243.465 50.7954 244.708 52.6199C245.915 54.3715 246.025 54.7364 245.842 56.196C245.111 61.4142 245.147 62.6914 245.952 64.5524C246.793 66.5594 246.939 69.3692 246.318 71.5587C246.062 72.2885 245.147 73.7846 244.27 74.8794C242.441 77.0323 241.271 79.2948 241.234 80.572C241.234 81.0098 240.759 82.36 240.137 83.5642C239.552 84.7684 239.04 86.0456 239.04 86.4105C239.04 88.3445 236.699 95.3872 233.517 103.087C233.079 104.072 232.603 105.495 232.42 106.189C232.274 106.918 231.396 109.035 230.519 110.932C228.544 115.165 227.191 118.778 226.313 121.916C225.801 123.741 224.009 126.915 218.743 135.454C214.976 141.585 211.355 147.204 210.733 147.934C209.197 149.759 207.552 150.124 202.541 149.613C194.02 148.773 173.613 143.811 160.74 139.432C153.791 137.096 153.974 137.169 148.708 133.557C142.637 129.36 141.905 128.959 138.76 127.864C135.286 126.623 128.008 126.149 127.313 127.098C127.057 127.426 125.485 128.339 123.729 129.141C120.292 130.71 115.976 133.046 105.334 139.067C101.457 141.256 97.9829 143.044 97.6172 143.044C96.6664 143.044 95.0206 141.804 89.1326 136.731C85.3657 133.52 84.0857 132.572 83.6469 132.827C83.3177 133.009 81.7451 134.25 80.136 135.6C76.1497 138.921 72.9314 141.147 70.0056 142.679C68.6891 143.373 62.9107 147.095 57.2056 150.89C51.5004 154.721 45.5392 158.662 43.9301 159.648C42.3209 160.597 40.602 161.764 40.09 162.239C39.578 162.676 38.5906 163.297 37.8957 163.662C37.2009 163.99 35.7014 164.975 34.6043 165.851C33.5071 166.69 29.8865 169.245 26.5585 171.507C23.2305 173.806 19.2442 176.616 17.6716 177.784C16.099 178.951 14.5996 179.9 14.3436 179.9C14.0876 179.9 12.9173 180.74 11.7104 181.761C10.5401 182.819 9.07727 183.878 8.45556 184.17C6.11497 185.228 -0.248497 190.446 0.00750426 191.066C0.556079 192.49 10.8327 207.232 13.5756 210.48C17.0499 214.676 17.7813 215.88 17.7813 217.376C17.7813 219.055 19.0248 220.624 22.0602 222.741C25.3517 225.039 28.2408 227.959 31.8614 232.63C41.0409 244.416 55.1941 261.275 55.9987 261.275C56.2547 261.275 57.7541 260.363 59.2901 259.268C61.3016 257.845 62.4353 257.261 63.2765 257.261C64.5565 257.261 67.3725 259.013 72.4559 263.063C74.0285 264.34 76.8445 266.384 78.6731 267.588C80.4651 268.792 83.5006 270.982 85.3657 272.478C87.2675 273.937 88.9863 275.141 89.2423 275.141C89.8275 275.141 91.0343 273.791 93.8504 270.033C95.1304 268.318 98.9338 263.72 102.262 259.815C113.306 246.861 117.476 241.789 119.085 239.38C119.963 238.067 122.669 234.308 125.119 230.987C130.971 223.069 136.785 214.895 141.174 208.363C143.332 205.225 145.746 201.904 149.147 197.452C152.621 192.927 152.877 192.161 151.414 190.884C150.792 190.373 146.111 186.286 140.955 181.798L131.629 173.697L131.373 167.931C131.117 161.363 131.556 144.723 131.995 144.285C132.141 144.103 134.372 144.504 136.932 145.161C140.662 146.11 143.076 146.438 148.927 146.839L156.278 147.35L159.643 149.029C172.37 155.415 187.766 161.253 198.628 163.844C204.26 165.194 212.05 166.763 212.964 166.763C213.805 166.763 218.523 162.056 219.437 160.305C219.767 159.648 220.242 158.991 220.535 158.845C220.827 158.699 222.729 156.4 224.74 153.809C226.752 151.182 228.653 148.81 228.946 148.482C229.275 148.153 229.531 147.752 229.531 147.533C229.531 147.35 229.86 146.876 230.263 146.511C230.665 146.146 230.994 145.708 230.994 145.526C230.994 145.161 231.945 143.847 233.773 141.658C234.395 140.928 235.09 139.943 235.346 139.468C235.895 138.41 236.334 138.447 237.065 139.578C237.943 140.928 240.283 146.438 241.417 149.941L242.441 153.006L242.222 161.071C241.929 170.157 241.307 180.302 239.954 196.868C238.345 216.829 238.455 216.282 233.847 223.58C228.8 231.608 228.068 233.688 227.3 242.482C226.788 248.905 226.093 252.627 225.179 254.086C224.777 254.78 224.009 256.422 223.497 257.772C222.107 261.494 221.047 263.355 216.219 270.909C212.416 276.857 208.576 282.33 205.284 286.563L204.48 287.621L200.237 287.038C197.933 286.709 192.082 285.651 187.254 284.666C182.463 283.68 178.404 282.951 178.294 283.024C178.148 283.097 177.965 283.644 177.855 284.264C177.673 285.067 177.38 285.395 176.612 285.541C176.063 285.687 175.149 286.016 174.564 286.308C174.015 286.636 173.028 286.819 172.37 286.746L171.199 286.636L170.943 289.191C170.834 290.577 170.541 296.817 170.322 303.057C169.517 324.988 169.481 325.754 165.494 357.429C163.336 374.616 163.154 376.55 163.592 376.988C163.812 377.207 164.653 377.462 165.458 377.571C168.164 377.936 168.274 378.228 168.42 386.767C168.457 390.891 168.676 394.576 168.859 394.905C169.298 395.707 170.797 395.853 183.268 396.291C188.9 396.51 196.214 396.839 199.542 397.021C202.87 397.24 212.745 397.642 221.485 397.933C266.798 399.466 265.335 399.393 265.993 400.67C266.322 401.327 266.469 404.356 266.469 412.019V422.492L263.872 430.082C262.446 434.278 260.836 438.511 260.324 439.497C258.24 443.365 254.034 447.014 250.816 447.78C248.695 448.327 246.72 449.276 245.952 450.152C245.038 451.21 244.855 452.597 245.257 455.48C245.659 458.253 247.634 465.588 248.11 466.025C248.512 466.427 251.291 466.755 255.46 466.974C260.069 467.157 265.189 466.354 267.419 465.077C269.358 463.945 269.87 462.814 271.077 457.195C272.832 448.875 275.502 443.839 280.146 439.971C282.597 437.964 286.802 435.337 287.57 435.337C288.777 435.337 288.96 436.906 289.143 449.094C289.289 457.779 289.436 461.318 289.765 461.647C290.386 462.267 290.496 461.428 290.972 453.765C291.52 444.204 292.398 435.154 293.056 432.235C293.385 430.812 293.714 428.184 293.788 426.323L293.97 423.003L291.74 418.113C289.033 412.128 288.009 408.479 287.9 404.465C287.826 401.692 287.753 401.327 286.839 400.378C285.998 399.503 285.852 399.028 285.852 397.204C285.852 394.248 286.912 381.075 287.278 379.506C287.461 378.812 288.192 375.929 288.887 373.12C292.252 359.983 292.288 350.057 289.106 326.083C288.485 321.303 287.973 315.829 287.936 313.457C287.9 307.618 288.631 290.395 289.143 285.541C289.692 280.214 291.301 271.091 291.776 270.507C292.434 269.668 293.532 269.996 294.263 271.2C294.665 271.857 295.836 274.521 296.86 277.148C302.967 292.511 308.928 305.101 311.708 308.531C313.939 311.267 315.657 312.435 319.315 313.639C323.264 314.953 326.958 315.245 328.86 314.333C330.469 313.603 337.271 306.925 341.367 302.035C344.622 298.204 353.07 284.666 357.605 276.09C363.493 264.997 366.858 259.669 377.537 244.708L381.706 238.833L384.961 238.614C388.142 238.359 390.044 237.629 390.081 236.644C390.081 236.425 391.068 234.272 392.238 231.863C395.347 225.623 398.858 221.062 408.696 210.589C411.877 207.195 413.413 205.845 414.767 205.225C417.107 204.167 420.984 203.802 424.092 204.349C429.066 205.225 429.176 205.225 429.98 204.495C431.407 203.218 432.979 200.627 434.04 197.817C435.247 194.533 435.283 193.986 434.332 191.76C433.308 189.351 432.065 187.855 429.651 186.177C427.201 184.462 420.947 181.287 418.753 180.63C416.888 180.083 416.229 180.375 412.207 183.768C404.563 190.118 397.066 195.482 393.372 197.16C389.203 199.058 385.07 198.802 385.217 196.65C385.253 196.139 387.74 191.139 390.776 185.52C393.811 179.9 396.298 175.12 396.298 174.828C396.298 173.551 394.908 175.412 389.349 183.987C383.278 193.365 380.938 196.504 377.134 200.481C375.964 201.685 374.83 203.072 374.538 203.619C373.66 205.298 373.258 208.765 373.258 214.311V219.785L370.515 225.039C369.015 227.959 367.297 230.987 366.711 231.827C366.126 232.666 363.31 235.658 360.421 238.468C357.532 241.278 349.632 249.014 342.867 255.692C336.101 262.333 330.213 267.953 329.774 268.172C329.116 268.537 328.97 268.5 328.714 267.77C328.421 267.041 327.397 249.014 327.397 244.635C327.397 243.796 327.616 242.811 327.909 242.482C328.201 242.117 330.469 240.84 332.956 239.672C335.406 238.468 337.418 237.337 337.418 237.191C337.418 237.008 337.088 236.169 336.65 235.366C335.735 233.651 335.882 232.63 337.308 230.987C338.149 229.966 338.222 229.71 337.82 229.09C336.869 227.557 331.895 217.449 329.006 211.1C327.36 207.487 324.873 202.306 323.484 199.605C320.997 194.716 320.887 194.57 313.573 186.651C295.068 166.508 292.105 163.114 291.886 161.91C291.52 160.086 292.252 156.765 294.629 148.883C295.836 144.978 297.079 140.6 297.408 139.213C297.701 137.79 298.213 136.148 298.469 135.564C298.761 134.943 299.09 133.885 299.2 133.192C299.858 129.798 304.32 115.238 305.454 112.83C306.697 110.239 306.734 109.911 306.953 104.765C307.136 100.241 307.027 98.7809 306.368 95.0588C305.929 92.6869 305.271 90.0231 304.905 89.1838C304.54 88.3445 302.492 85.5347 300.37 82.9074C298.249 80.2435 296.311 77.7986 296.092 77.3972C295.433 76.1565 295.689 72.544 296.64 69.2963C297.701 65.7202 297.774 63.4212 296.969 60.9033C296.494 59.5167 296.421 58.2395 296.53 55.7216C296.713 52.6564 296.823 52.182 297.957 50.5399C298.615 49.5182 299.932 47.8396 300.882 46.7449C302.93 44.4459 305.015 40.4684 305.783 37.4032C306.478 34.6664 306.478 28.2075 305.82 24.011C304.686 17.0048 299.127 7.88204 293.605 3.90453C290.716 1.82455 285.815 5.18812e-06 283.145 5.18812e-06C281.865 5.18812e-06 280.768 0.0729946 280.695 0.145976ZM124.936 130.309C124.936 130.564 124.168 132.17 123.217 133.885C122.267 135.6 119.414 141.11 116.89 146.11C114.367 151.109 112.063 155.342 111.734 155.561C111.222 155.889 110.234 155.123 106.248 151.547C100.031 145.964 99.263 145.124 99.519 144.395C99.9213 143.446 110.271 137.133 119.085 132.499C124.095 129.871 124.936 129.579 124.936 130.309ZM127.496 131.221C127.972 132.426 127.972 137.388 127.496 139.03C126.984 140.782 127.277 141.366 128.959 142.132C129.91 142.57 130.532 143.117 130.641 143.665C130.788 144.176 130.715 150.233 130.459 157.166C130.056 169.61 129.91 170.777 128.776 170.777C128.008 170.777 115.135 159.392 114.074 157.75C113.526 156.947 113.599 156.692 114.696 153.517C116.159 149.43 126.033 130.273 126.692 130.273C126.948 130.273 127.313 130.71 127.496 131.221ZM229.86 258.137C230.409 258.429 231.689 258.867 232.676 259.122C233.883 259.414 235.09 260.144 236.37 261.238L238.308 262.917V271.127C238.272 280.98 237.833 286.709 237.028 287.512C236.297 288.278 226.423 288.534 220.352 287.986C215.817 287.548 215.049 287.366 214.756 286.636C214.464 285.87 215.415 282.44 218.011 274.594C220.937 265.909 222.144 263.136 223.863 261.238C224.557 260.436 225.143 259.56 225.143 259.304C225.143 257.845 227.959 257.188 229.86 258.137ZM256.046 259.049C256.155 259.231 256.558 262.041 256.96 265.216C257.362 268.427 258.094 273.426 258.569 276.309C259.593 282.44 260.032 286.855 259.703 287.913C259.483 288.607 259.191 288.643 252.535 288.643C245.659 288.643 245.586 288.643 244.708 287.731C244.087 287.147 243.794 286.454 243.794 285.578C243.794 284.885 243.538 283.352 243.246 282.184C242.624 279.666 240.868 264.742 240.868 261.822C240.868 260.545 241.051 259.742 241.344 259.633C241.856 259.414 250.158 258.867 253.559 258.757C254.802 258.757 255.899 258.867 256.046 259.049Z" fill="#8864A0"/>
</svg>
