<svg width="30" height="40" viewBox="0 0 30 40" fill="none" xmlns="http://www.w3.org/2000/svg">
<path opacity="0.4906" d="M22.0814 37.1931C22.086 37.3668 21.9076 37.539 21.5564 37.6997C21.2053 37.8605 20.6883 38.0066 20.0352 38.1297C19.3822 38.2528 18.6059 38.3506 17.751 38.4172C16.896 38.4839 15.9793 38.5182 15.0535 38.5182C14.1276 38.5182 13.2109 38.4839 12.356 38.4172C11.501 38.3506 10.7247 38.2528 10.0717 38.1297C9.41861 38.0066 8.90166 37.8605 8.5505 37.6997C8.19935 37.539 8.02093 37.3668 8.02548 37.1931C8.02093 37.0194 8.19935 36.8473 8.5505 36.6865C8.90166 36.5258 9.41861 36.3797 10.0717 36.2565C10.7247 36.1334 11.501 36.0357 12.356 35.969C13.2109 35.9024 14.1276 35.868 15.0535 35.868C15.9793 35.868 16.896 35.9024 17.751 35.969C18.6059 36.0357 19.3822 36.1334 20.0352 36.2565C20.6883 36.3797 21.2053 36.5258 21.5564 36.6865C21.9076 36.8473 22.086 37.0194 22.0814 37.1931Z" fill="#50107C"/>
<path d="M15.0506 2.20668C7.6551 2.21649 1.66309 7.87145 1.66309 14.8456C1.66309 19.4644 4.29071 23.5039 8.2139 25.7092C12.0417 28.3969 14.6333 32.5605 15.0425 37.3066L15.0504 37.3195L15.0538 37.3141L15.0561 37.3195L15.064 37.3066C15.4737 32.5602 18.0649 28.3967 21.8931 25.7092C25.8164 23.5042 28.4439 19.4644 28.4439 14.8456C28.4439 7.87145 22.4519 2.21656 15.0564 2.20668C15.0545 2.20668 15.0526 2.20668 15.0507 2.20668H15.0506Z" fill="#632B8A"/>
<path d="M24.0371 14.7963C24.0371 17.0425 23.0906 19.1967 21.4058 20.7851C19.721 22.3734 17.4359 23.2657 15.0532 23.2657C12.6705 23.2657 10.3855 22.3734 8.70065 20.7851C7.01585 19.1967 6.06934 17.0425 6.06934 14.7963C6.06934 12.5501 7.01585 10.3959 8.70065 8.80763C10.3855 7.21933 12.6705 6.32703 15.0532 6.32703C17.4359 6.32703 19.721 7.21933 21.4058 8.80763C23.0906 10.3959 24.0371 12.5501 24.0371 14.7963Z" fill="#0044AA"/>
<path d="M23.8633 14.497C23.8633 16.6639 22.9351 18.742 21.2828 20.2743C19.6305 21.8065 17.3895 22.6673 15.0528 22.6673C12.7161 22.6673 10.475 21.8065 8.82275 20.2743C7.17044 18.742 6.24219 16.6639 6.24219 14.497C6.24219 12.3302 7.17044 10.252 8.82275 8.71983C10.475 7.18762 12.7161 6.32683 15.0528 6.32683C17.3895 6.32683 19.6305 7.18762 21.2828 8.71983C22.9351 10.252 23.8633 12.3302 23.8633 14.497Z" fill="#A55ED6"/>
</svg>
