<svg width="36" height="40" viewBox="0 0 36 40" fill="none" xmlns="http://www.w3.org/2000/svg">
<path d="M35.2607 28.1162C34.1549 26.2608 31.708 21.8075 31.3388 20.8587C31.0438 20.1009 29.8895 16.8653 29.8895 16.0998C29.8895 16.0749 29.8873 16.048 29.8859 16.0217C29.8154 16.0422 29.7455 16.0598 29.6756 16.0749C29.5051 16.1112 29.3348 16.1367 29.1639 16.1539C28.993 16.1709 28.8207 16.1777 28.6492 16.1704C28.4797 16.1616 28.3022 16.1419 28.1556 16.0682C28.3161 16.1128 28.483 16.0992 28.6438 16.0783C28.8051 16.0552 28.9637 16.0189 29.1183 15.9735C29.2727 15.928 29.4239 15.875 29.5673 15.8142C29.6388 15.7839 29.7088 15.7514 29.7727 15.7165C29.7954 15.7047 29.8167 15.6922 29.837 15.6795C29.7972 15.497 29.7366 15.3009 29.664 15.1048C29.6507 15.1056 29.6376 15.1066 29.6246 15.1075C29.5489 15.1141 29.4724 15.1218 29.3951 15.1306C29.2408 15.1481 29.0857 15.1674 28.9304 15.1879L28.4641 15.2501C28.3083 15.2696 28.1532 15.295 27.9957 15.3066C28.1449 15.2651 28.2894 15.2103 28.4359 15.161L28.875 15.0095C29.0218 14.9593 29.169 14.9099 29.3182 14.8618C29.3906 14.8383 29.4642 14.8157 29.5389 14.7936C29.4702 14.635 29.3966 14.4815 29.3218 14.34L29.3217 14.3399H29.3218L29.3162 14.3291C29.303 14.3217 29.2844 14.3138 29.2584 14.309C29.1947 14.2944 29.1114 14.2917 29.0284 14.2952C28.8604 14.3026 28.6841 14.3334 28.512 14.3761C28.3394 14.4187 28.1696 14.4752 28.0054 14.5434C27.8422 14.613 27.6836 14.6942 27.5425 14.7988C27.6579 14.6726 27.7995 14.5633 27.9497 14.4646C28.1012 14.3671 28.2626 14.2796 28.4331 14.2045C28.6042 14.1294 28.7825 14.0642 28.9794 14.0215C29.0263 14.0119 29.074 14.0032 29.1239 13.9969C29.0865 13.9384 29.05 13.8835 29.0152 13.8363C28.8169 13.5663 28.4367 12.602 28.1339 11.5353C27.9734 11.576 27.7385 11.6196 27.4674 11.6196C27.2137 11.6196 26.9286 11.5814 26.6444 11.4666C25.8002 11.1253 25.6357 9.63399 25.8677 8.95634C26.0556 8.40727 27.2514 8.21126 27.77 8.15141C27.7112 7.98134 27.5341 7.88954 27.4079 7.84446C26.7079 7.59485 25.2414 7.89407 24.3169 9.33009C23.1747 11.1036 23.9902 14.382 24.6521 16.0395C25.2545 17.5482 24.3502 21.6441 23.7519 24.3544L23.7444 24.3887C22.9251 28.0995 23.353 31.2853 24.7812 33.4424C24.8329 33.5304 24.8875 33.617 24.9441 33.7027C24.977 33.7524 25.0104 33.8014 25.0447 33.8502C25.2325 34.1168 25.4439 34.3706 25.6822 34.6052C25.8609 34.7809 26.0554 34.9445 26.2636 35.0947C26.3678 35.1702 26.4757 35.2406 26.5873 35.3086L26.933 35.5081C27.401 35.764 27.8957 35.9888 28.4217 36.1453C28.6835 36.2277 28.9543 36.2869 29.2292 36.3282C29.504 36.3666 29.7863 36.3892 30.0659 36.3559C30.0574 36.3576 30.0489 36.3588 30.0403 36.3604C29.7728 36.4116 29.4942 36.4127 29.2198 36.397C28.9363 36.3781 28.6528 36.3402 28.3764 36.2782C27.8201 36.162 27.2859 35.9729 26.7746 35.7487L26.3956 35.5723C26.2693 35.51 26.1441 35.4434 26.0237 35.3717C25.782 35.2286 25.5525 35.0691 25.3385 34.8952C25.0747 34.6803 24.833 34.4456 24.6124 34.1967C24.2996 35.1145 23.3181 35.7865 22.1579 35.7865H17.6209C18.8524 37.4058 22.6203 40.0388 26.507 39.3599C28.8458 38.9514 29.5868 38.0908 30.3715 37.1796C30.8205 36.6579 31.2842 36.1196 32.0574 35.682L32.2128 35.5975C33.198 35.0848 34.268 33.7183 34.9388 32.1161C35.6275 30.4712 35.751 28.9384 35.2607 28.1162ZM4.31701 25.9228C3.99085 25.9766 3.24251 26.1155 2.86285 26.3126C2.57494 26.4622 2.23091 26.8188 1.92748 27.1334C1.70751 27.3613 1.49981 27.5766 1.31845 27.7105C1.24763 27.7627 1.1953 27.9879 1.30808 28.3052C1.45785 28.7266 1.85927 29.1996 2.53704 29.2636C3.15346 29.3216 3.61533 29.2351 3.90991 29.0064C4.17996 28.7965 4.31701 28.4581 4.31701 28.0007C4.31701 27.751 4.28868 27.5098 4.23301 27.2838L4.31701 27.2682V27.2677L4.23283 27.283C4.21695 27.0736 4.17906 26.8605 4.11779 26.6497C4.05716 26.4389 3.97812 26.229 3.87247 26.0267C4.03867 26.1966 4.18474 26.3836 4.31548 26.5804L4.31701 26.5827V25.9228ZM3.6765 25.327C4.18664 25.2747 4.81587 25.0784 5.05172 24.6845C5.53316 23.8804 5.38781 22.9434 4.64236 22.0461C4.50612 21.8822 4.39036 21.6945 4.29815 21.4883L4.29978 21.4877C4.24411 21.3722 4.19033 21.2558 4.1399 21.1384C4.09 21.0227 4.04327 20.9059 4.00104 20.7879C3.95791 20.6643 3.91857 20.5396 3.88934 20.4132C3.86245 20.2871 3.83548 20.1573 3.85497 20.0303C3.87139 20.156 3.93166 20.2715 3.99058 20.3845C4.0522 20.4972 4.12248 20.6061 4.19593 20.7129C4.23527 20.7691 4.27569 20.8246 4.31701 20.8796V19.6877C4.28868 19.7091 4.25954 19.7299 4.22877 19.7491C3.81725 20.0071 3.39608 20.1563 2.98636 20.2232C2.93737 20.2313 2.88847 20.2378 2.83984 20.2435C2.66146 20.3445 1.9448 20.8052 1.49286 21.9077C1.3743 22.197 1.34263 22.5004 1.36835 22.8013C1.65202 22.4735 2.12381 22.1624 2.5282 22.0774C2.87232 22.005 3.05972 22.1145 3.15644 22.2191C3.5408 22.6353 3.82239 23.1663 3.62823 23.3345L3.61587 23.3453C3.04294 23.8391 2.42642 24.4566 2.25987 24.8334C2.3657 24.9707 2.45891 25.0766 2.52342 25.1409C2.66074 25.2781 3.10095 25.3857 3.6765 25.327ZM1.49674 23.4223C1.64742 23.8935 1.89788 24.3262 2.12399 24.6483C2.40838 24.157 3.12261 23.5099 3.46537 23.2145L3.47755 23.204C3.50733 23.1488 3.41033 22.7897 2.98979 22.3345C2.9057 22.2432 2.7673 22.2172 2.57845 22.2568C2.49806 22.2738 2.41316 22.3029 2.32718 22.3398C2.40008 22.4469 2.40468 22.5874 2.37121 22.7098C2.33385 22.8453 2.25626 22.969 2.15818 23.0754C2.05993 23.182 1.93785 23.2715 1.79954 23.3366C1.70633 23.3795 1.60212 23.4124 1.49674 23.4223ZM1.47779 23.3596C1.56044 23.3169 1.63479 23.2688 1.70543 23.2165C1.81045 23.1382 1.90654 23.0521 1.99226 22.9595C2.07779 22.867 2.1543 22.7688 2.21295 22.6631C2.26564 22.5675 2.30245 22.4659 2.30516 22.3491C1.94597 22.5089 1.57199 22.8156 1.40958 23.0864C1.42808 23.1784 1.45091 23.2696 1.47779 23.3596ZM3.97867 19.45C4.48573 19.132 4.63289 18.2333 4.60149 17.4984C4.60041 17.458 4.60167 17.417 4.59373 17.3663C4.58949 17.3187 4.58083 17.2684 4.57244 17.2181C4.55584 17.1178 4.53536 17.0159 4.51352 16.914C4.47021 16.71 4.42176 16.5053 4.37259 16.3006L4.22489 15.6856C4.2008 15.5828 4.17662 15.4801 4.15524 15.3767C4.13566 15.2737 4.10769 15.1695 4.11265 15.0642C4.12537 15.1679 4.17012 15.266 4.20694 15.3652C4.24519 15.4641 4.28642 15.5624 4.32748 15.6606L4.57767 16.2499C4.58859 16.2757 4.59933 16.3017 4.61033 16.3276L4.32585 14.7065L4.33262 14.8909C3.24585 14.9212 2.36146 15.3844 1.99975 15.802C1.95057 15.8588 1.89734 15.9444 1.84149 16.0488C1.92324 16.0802 1.99325 16.1293 2.04946 16.1956C2.31427 16.5072 2.2079 17.114 2.07175 17.4459C1.82832 18.0395 1.0716 18.3745 0.705552 18.5056C0.623266 18.6285 0.538906 18.7315 0.451748 18.8068C0.383086 18.8664 0.454454 19.0326 0.621372 19.2021C1.19918 19.7888 2.66579 20.2733 3.97867 19.45ZM0.866154 18.2366C1.22309 18.0782 1.70101 17.7983 1.87091 17.3841C1.96465 17.1557 2.0159 16.8702 1.99424 16.6367L1.99181 16.6404C1.943 16.7046 1.87623 16.7588 1.80116 16.8016C1.726 16.8449 1.64254 16.8769 1.55584 16.9007C1.52164 16.9105 1.48663 16.9177 1.45145 16.9238C1.43863 16.9553 1.42573 16.9867 1.41292 17.0181C1.23653 17.4483 1.05653 17.8863 0.866154 18.2366ZM1.51686 16.7655L1.52354 16.7651C1.60077 16.7587 1.67791 16.745 1.75109 16.7202C1.82408 16.6956 1.89346 16.6598 1.95057 16.6112C1.9633 16.6002 1.97539 16.5884 1.98703 16.5762C1.96997 16.4667 1.93488 16.372 1.87767 16.3049C1.84429 16.2655 1.80378 16.2368 1.75632 16.2182C1.67882 16.3806 1.59797 16.5699 1.51686 16.7655ZM4.31701 11.2542V7.41704C4.02071 7.2736 3.05196 7.19462 2.2946 7.49446C1.81 7.68626 1.53328 7.98548 1.47184 8.38384C1.29725 9.51782 2.41036 10.3489 4.31701 11.2542ZM10.1567 1.34298C10.1567 1.52446 10.327 1.6718 10.5366 1.6718C10.7459 1.6718 10.9164 1.52446 10.9164 1.34298C10.9164 1.16165 10.7459 1.01399 10.5366 1.01399C10.327 1.01399 10.1567 1.16165 10.1567 1.34298ZM11.5503 1.01399C11.3409 1.01399 11.1705 1.16165 11.1705 1.34298C11.1705 1.52446 11.3409 1.6718 11.5503 1.6718C11.7597 1.6718 11.9302 1.52446 11.9302 1.34298C11.9302 1.16165 11.7597 1.01399 11.5503 1.01399ZM16.3924 1.11219H12.6416C12.4754 1.11219 12.3401 1.2293 12.3401 1.37321V1.45126C12.3401 1.59516 12.4754 1.71227 12.6416 1.71227H16.3924C16.5586 1.71227 16.6938 1.59516 16.6938 1.45126V1.37321C16.6938 1.2293 16.5586 1.11219 16.3924 1.11219ZM19.3594 0.875632C19.0618 0.875632 18.8196 1.08524 18.8196 1.34298C18.8196 1.60071 19.0618 1.8104 19.3594 1.8104C19.6572 1.8104 19.8991 1.60071 19.8991 1.34298C19.8991 1.08524 19.6572 0.875632 19.3594 0.875632ZM12.2666 34.0845C12.2666 34.4545 12.6142 34.7556 13.0416 34.7556H16.1053C16.5327 34.7556 16.8805 34.4545 16.8805 34.0845V33.8573C16.8805 33.4872 16.5327 33.1862 16.1053 33.1862H13.0416C12.6142 33.1862 12.2666 33.4872 12.2666 33.8573V34.0845ZM23.7638 14.6886C23.3173 13.0348 23.0587 10.9194 23.7638 9.47407V4.0279H5.38321V22.3988C5.85563 23.2363 5.87891 24.1056 5.4303 24.8545C5.41596 24.8787 5.39981 24.9022 5.38321 24.9256V32.0193H23.4974C22.7421 29.9309 22.6743 27.2689 23.3255 24.3194L23.333 24.285C23.4641 23.6918 23.6159 23.0037 23.7638 22.2806V14.6886ZM26.9041 11.3567C27.376 11.4928 27.837 11.4171 28.0835 11.3545C28.0225 11.1307 27.9658 10.9041 27.9151 10.6798C27.8501 10.6959 27.79 10.7145 27.7324 10.7365C27.6185 10.7788 27.5181 10.8301 27.4241 10.8917C27.33 10.9535 27.2428 11.0264 27.1548 11.1088C27.0725 11.1831 26.9985 11.2688 26.9041 11.3567ZM27.7636 8.42501C27.7739 8.39376 27.7796 8.36469 27.7839 8.33649C27.2068 8.40626 26.2094 8.60759 26.072 9.00884C25.864 9.61704 26.0006 11.0027 26.7346 11.2993C26.7812 11.3181 26.8277 11.3345 26.8742 11.3488C26.8647 11.2281 26.8854 11.1067 26.9421 10.994C27.0034 10.8713 27.101 10.7564 27.2307 10.6712C27.3594 10.5854 27.5193 10.5321 27.6799 10.5234C27.7482 10.5195 27.8174 10.5243 27.8837 10.5375C27.7003 9.68313 27.6167 8.87946 27.7636 8.42501ZM35.3397 32.242C34.6269 33.9447 33.5128 35.3517 32.4325 35.914C31.6363 36.3283 31.188 36.849 30.7133 37.4002C29.9154 38.3271 29.0902 39.2855 26.5911 39.7219C26.1384 39.8009 25.6868 39.8374 25.2406 39.8374C21.5284 39.8374 18.1677 37.3145 17.1414 35.8193L17.2052 35.7865H6.87608C5.46495 35.7865 4.31701 34.7924 4.31701 33.5706V29.1734C4.27867 29.2114 4.23815 29.2475 4.19476 29.2813C3.87879 29.5267 3.44056 29.6503 2.88883 29.6503C2.76224 29.6503 2.62943 29.6438 2.49085 29.6307C1.60745 29.5474 1.09009 28.9475 0.900349 28.4138C0.747507 27.9838 0.801733 27.6065 1.04182 27.4294C1.19575 27.3158 1.39217 27.1122 1.60023 26.8967C1.9411 26.5431 2.29379 26.1777 2.64342 25.9959C2.86835 25.8791 3.18784 25.783 3.49334 25.709C3.44904 25.7106 3.40492 25.7125 3.35999 25.7125C2.9131 25.7125 2.44519 25.6267 2.20104 25.3828C1.60266 24.7849 0.543958 23.1187 1.09091 21.7842C1.40254 21.0241 1.82949 20.5399 2.16251 20.252C1.36727 20.1809 0.682996 19.8338 0.29674 19.4417C-0.104132 19.0346 -0.0417863 18.712 0.150124 18.5458C0.435056 18.299 0.741011 17.5529 1.01097 16.8946C1.24763 16.3176 1.45181 15.8191 1.65851 15.5805C2.09349 15.0785 3.0839 14.5567 4.31701 14.522V11.6741C2.12715 10.656 0.83665 9.71469 1.04913 8.33501C1.13006 7.81001 1.49945 7.40321 2.11731 7.15852C2.82567 6.87821 3.76988 6.86298 4.31701 7.01837V2.30485C4.31701 1.08298 5.46495 0.088913 6.87608 0.088913H22.1579C23.5691 0.088913 24.7172 1.08298 24.7172 2.30485V8.25298C25.7093 7.39602 26.8935 7.26165 27.5704 7.50305C28.087 7.68727 28.3185 8.07876 28.1744 8.52462C27.8226 9.6129 29.0258 13.1626 29.3752 13.6381C29.4782 13.7784 29.5921 13.9651 29.704 14.1763L29.7042 14.1766H29.7041C30.0182 14.7695 30.3159 15.5602 30.3159 16.0998C30.3159 16.7333 31.3287 19.677 31.7429 20.7407C32.0954 21.6464 34.5456 26.1111 35.6397 27.9468C36.1908 28.8713 36.0787 30.477 35.3397 32.242ZM13.0416 34.6633H16.1053C16.4739 34.6633 16.7738 34.4036 16.7738 34.0845V33.8573C16.7738 33.5381 16.4739 33.2784 16.1053 33.2784H13.0416C12.6731 33.2784 12.3732 33.5381 12.3732 33.8573V34.0845C12.3732 34.4036 12.6731 34.6633 13.0416 34.6633ZM12.6416 1.20454C12.5342 1.20454 12.4469 1.28032 12.4469 1.37321V1.45126C12.4469 1.54423 12.5342 1.61993 12.6416 1.61993H16.3924C16.4998 1.61993 16.5872 1.54423 16.5872 1.45126V1.37321C16.5872 1.28032 16.4998 1.20454 16.3924 1.20454H12.6416ZM18.9262 1.34298C18.9262 1.54977 19.1205 1.71805 19.3594 1.71805C19.5982 1.71805 19.7927 1.54977 19.7927 1.34298C19.7927 1.13618 19.5982 0.967976 19.3594 0.967976C19.1205 0.967976 18.9262 1.13618 18.9262 1.34298ZM10.5366 1.57962C10.6873 1.57962 10.8097 1.47344 10.8097 1.34298C10.8097 1.21251 10.6873 1.10641 10.5366 1.10641C10.3859 1.10641 10.2632 1.21251 10.2632 1.34298C10.2632 1.47344 10.3859 1.57962 10.5366 1.57962ZM11.5503 1.10641C11.701 1.10641 11.8235 1.21251 11.8235 1.34298C11.8235 1.47344 11.701 1.57962 11.5503 1.57962C11.3997 1.57962 11.2771 1.47344 11.2771 1.34298C11.2771 1.21251 11.3997 1.10641 11.5503 1.10641Z" fill="#632B8A"/>
</svg>
