<?xml version="1.0" standalone="no"?>
<!DOCTYPE svg PUBLIC "-//W3C//DTD SVG 20010904//EN"
 "http://www.w3.org/TR/2001/REC-SVG-20010904/DTD/svg10.dtd">
<svg version="1.0" xmlns="http://www.w3.org/2000/svg"
 width="1192.000000pt" height="1280.000000pt" viewBox="0 0 1192.000000 1280.000000"
 preserveAspectRatio="xMidYMid meet">
<g transform="translate(0.000000,1280.000000) scale(0.100000,-0.100000)"
fill="#000000" stroke="none">
<path d="M7699 12796 c-2 -2 -55 -11 -118 -21 -86 -12 -132 -25 -188 -51 -115
-55 -251 -151 -339 -240 -100 -100 -145 -185 -173 -324 -10 -52 -30 -123 -45
-157 -24 -58 -26 -73 -26 -218 0 -169 1 -167 -65 -255 -23 -32 -47 -71 -54
-88 -12 -28 -10 -34 24 -84 33 -48 36 -58 31 -98 -20 -143 -19 -178 3 -229 23
-55 27 -132 10 -192 -7 -20 -32 -61 -56 -91 -50 -59 -82 -121 -83 -156 0 -12
-13 -49 -30 -82 -16 -33 -30 -68 -30 -78 0 -53 -64 -246 -151 -457 -12 -27
-25 -66 -30 -85 -4 -20 -28 -78 -52 -130 -54 -116 -91 -215 -115 -301 -14 -50
-63 -137 -207 -371 -103 -168 -202 -322 -219 -342 -42 -50 -87 -60 -224 -46
-233 23 -791 159 -1143 279 -190 64 -185 62 -329 161 -166 115 -186 126 -272
156 -95 34 -294 47 -313 21 -7 -9 -50 -34 -98 -56 -94 -43 -212 -107 -503
-272 -106 -60 -201 -109 -211 -109 -26 0 -71 34 -232 173 -103 88 -138 114
-150 107 -9 -5 -52 -39 -96 -76 -109 -91 -197 -152 -277 -194 -36 -19 -194
-121 -350 -225 -156 -105 -319 -213 -363 -240 -44 -26 -91 -58 -105 -71 -14
-12 -41 -29 -60 -39 -19 -9 -60 -36 -90 -60 -30 -23 -129 -93 -220 -155 -91
-63 -200 -140 -243 -172 -43 -32 -84 -58 -91 -58 -7 0 -39 -23 -72 -51 -32
-29 -72 -58 -89 -66 -64 -29 -238 -172 -231 -189 15 -39 296 -443 371 -532 95
-115 115 -148 115 -189 0 -46 34 -89 117 -147 90 -63 169 -143 268 -271 251
-323 638 -785 660 -785 7 0 48 25 90 55 55 39 86 55 109 55 35 0 112 -48 251
-159 43 -35 120 -91 170 -124 49 -33 132 -93 183 -134 52 -40 99 -73 106 -73
16 0 49 37 126 140 35 47 139 173 230 280 302 355 416 494 460 560 24 36 98
139 165 230 160 217 319 441 439 620 59 86 125 177 218 299 95 124 102 145 62
180 -17 14 -145 126 -286 249 l-255 222 -7 158 c-7 180 5 636 17 648 4 5 65
-6 135 -24 102 -26 168 -35 328 -46 l201 -14 92 -46 c348 -175 769 -335 1066
-406 154 -37 367 -80 392 -80 23 0 152 129 177 177 9 18 22 36 30 40 8 4 60
67 115 138 55 72 107 137 115 146 9 9 16 20 16 26 0 5 9 18 20 28 11 10 20 22
20 27 0 10 26 46 76 106 17 20 36 47 43 60 15 29 27 28 47 -3 24 -37 88 -188
119 -284 l28 -84 -6 -221 c-8 -249 -25 -527 -62 -981 -44 -547 -41 -532 -167
-732 -138 -220 -158 -277 -179 -518 -14 -176 -33 -278 -58 -318 -11 -19 -32
-64 -46 -101 -38 -102 -67 -153 -199 -360 -104 -163 -209 -313 -299 -429 l-22
-29 -116 16 c-63 9 -223 38 -355 65 -131 27 -242 47 -245 45 -4 -2 -9 -17 -12
-34 -5 -22 -13 -31 -34 -35 -15 -4 -40 -13 -56 -21 -15 -9 -42 -14 -60 -12
l-32 3 -7 -70 c-3 -38 -11 -209 -17 -380 -22 -601 -23 -622 -132 -1490 -59
-471 -64 -524 -52 -536 6 -6 29 -13 51 -16 74 -10 77 -18 81 -252 1 -113 7
-214 12 -223 12 -22 53 -26 394 -38 154 -6 354 -15 445 -20 91 -6 361 -17 600
-25 1239 -42 1199 -40 1217 -75 9 -18 13 -101 13 -311 l0 -287 -71 -208 c-39
-115 -83 -231 -97 -258 -57 -106 -172 -206 -260 -227 -58 -15 -112 -41 -133
-65 -25 -29 -30 -67 -19 -146 11 -76 65 -277 78 -289 11 -11 87 -20 201 -26
126 -5 266 17 327 52 53 31 67 62 100 216 48 228 121 366 248 472 67 55 182
127 203 127 33 0 38 -43 43 -377 4 -238 8 -335 17 -344 17 -17 20 6 33 216 15
262 39 510 57 590 9 39 18 111 20 162 l5 91 -61 134 c-74 164 -102 264 -105
374 -2 76 -4 86 -29 112 -23 24 -27 37 -27 87 0 81 29 442 39 485 5 19 25 98
44 175 92 360 93 632 6 1289 -17 131 -31 281 -32 346 -1 160 19 632 33 765 15
146 59 396 72 412 18 23 48 14 68 -19 11 -18 43 -91 71 -163 167 -421 330
-766 406 -860 61 -75 108 -107 208 -140 108 -36 209 -44 261 -19 44 20 230
203 342 337 89 105 320 476 444 711 161 304 253 450 545 860 l114 161 89 6
c87 7 139 27 140 54 0 6 27 65 59 131 85 171 181 296 450 583 87 93 129 130
166 147 64 29 170 39 255 24 136 -24 139 -24 161 -4 39 35 82 106 111 183 33
90 34 105 8 166 -28 66 -62 107 -128 153 -67 47 -238 134 -298 152 -51 15 -69
7 -179 -86 -209 -174 -414 -321 -515 -367 -114 -52 -227 -45 -223 14 1 14 69
151 152 305 83 154 151 285 151 293 0 35 -38 -16 -190 -251 -166 -257 -230
-343 -334 -452 -32 -33 -63 -71 -71 -86 -24 -46 -35 -141 -35 -293 l0 -150
-75 -144 c-41 -80 -88 -163 -104 -186 -16 -23 -93 -105 -172 -182 -79 -77
-295 -289 -480 -472 -185 -182 -346 -336 -358 -342 -18 -10 -22 -9 -29 11 -8
20 -36 514 -36 634 0 23 6 50 14 59 8 10 70 45 138 77 67 33 122 64 122 68 0
5 -9 28 -21 50 -25 47 -21 75 18 120 23 28 25 35 14 52 -26 42 -162 319 -241
493 -45 99 -113 241 -151 315 -68 134 -71 138 -271 355 -506 552 -587 645
-593 678 -10 50 10 141 75 357 33 107 67 227 76 265 8 39 22 84 29 100 8 17
17 46 20 65 18 93 140 492 171 558 34 71 35 80 41 221 5 124 2 164 -16 266
-12 65 -30 138 -40 161 -10 23 -66 100 -124 172 -58 73 -111 140 -117 151 -18
34 -11 133 15 222 29 98 31 161 9 230 -13 38 -15 73 -12 142 5 84 8 97 39 142
18 28 54 74 80 104 56 63 113 172 134 256 19 75 19 252 1 367 -31 192 -183
442 -334 551 -79 57 -213 107 -286 107 -35 0 -65 -2 -67 -4z m-4259 -3567 c0
-7 -21 -51 -47 -98 -26 -47 -104 -198 -173 -335 -69 -137 -132 -253 -141 -259
-14 -9 -41 12 -150 110 -170 153 -191 176 -184 196 11 26 294 199 535 326 137
72 160 80 160 60z m70 -25 c13 -33 13 -169 0 -214 -14 -48 -6 -64 40 -85 26
-12 43 -27 46 -42 4 -14 2 -180 -5 -370 -11 -341 -15 -373 -46 -373 -21 0
-373 312 -402 357 -15 22 -13 29 17 116 40 112 310 637 328 637 7 0 17 -12 22
-26z m2799 -3478 c15 -8 50 -20 77 -27 33 -8 66 -28 101 -58 l53 -46 0 -225
c-1 -270 -13 -427 -35 -449 -20 -21 -290 -28 -456 -13 -124 12 -145 17 -153
37 -8 21 18 115 89 330 80 238 113 314 160 366 19 22 35 46 35 53 0 40 77 58
129 32z m716 -25 c3 -5 14 -82 25 -169 11 -88 31 -225 44 -304 28 -168 40
-289 31 -318 -6 -19 -14 -20 -196 -20 -188 0 -190 0 -214 25 -17 16 -25 35
-25 59 0 19 -7 61 -15 93 -17 69 -65 478 -65 558 0 35 5 57 13 60 14 6 241 21
334 24 34 0 64 -3 68 -8z"/>
</g>
</svg>
